<?xml version="1.0" encoding="utf-8"?>
<!-- Generator: Adobe Illustrator 17.0.0, SVG Export Plug-In . SVG Version: 6.00 Build 0)  -->
<!DOCTYPE svg PUBLIC "-//W3C//DTD SVG 1.1//EN" "http://www.w3.org/Graphics/SVG/1.1/DTD/svg11.dtd">
<svg version="1.1" id="Layer_1" xmlns="http://www.w3.org/2000/svg" xmlns:xlink="http://www.w3.org/1999/xlink" x="0px" y="0px"
	 width="1800px" height="400px" viewBox="0 0 1800 400" enable-background="new 0 0 1800 400" xml:space="preserve">
<path fill="#FFFFFF" d="M1800.001,138.105c-9.302-1.563-18.924-2.387-28.779-2.387c-25.474,0-49.396,5.499-70.194,15.123
	c-18.016-27.496-53.024-46.151-93.263-46.151c-34.094,0-64.409,13.405-83.842,34.218c-27.321-20.849-63.711-33.573-103.669-33.573
	c-51.915,0-97.807,21.474-125.608,54.345c-3.26-0.819-6.609-1.464-10.037-1.912c-8.882-29.436-40.837-51.232-78.906-51.232
	c-26.881,0-50.706,10.87-65.523,27.619c-8.598-3.287-18.155-5.134-28.232-5.134c-10.598,0-20.627,2.029-29.563,5.643
	c-24.147-36.002-70.303-60.355-123.304-60.355c-1.509,0-3.011,0.027-4.508,0.066c-25.518-30.217-63.95-49.453-106.942-49.453
	c-32.966,0-63.25,11.316-87.088,30.214c-9.308-2.569-19.117-3.947-29.255-3.947c-42.199,0-78.756,23.805-96.622,58.535
	c-26.249-40.212-72.04-66.844-124.143-66.844c-61.313,0-113.886,36.884-136.157,89.375c-1.795-0.131-3.603-0.221-5.433-0.221
	c-31.087,0-57.594,19.29-67.916,46.389c-16.465,0.704-31.605,6.432-43.891,15.668c-11.443-9.805-26.374-15.754-42.722-15.754
	c-7.858,0-15.391,1.372-22.365,3.884c-18.382-41.804-57.786-72.526-105.065-79.207C71.471,73.471,40.212,53.265,4.148,53.265
	c-1.391,0-2.772,0.036-4.148,0.095v297.964c19.892,11.292,42.963,17.752,67.565,17.752c50.912,0,95.266-27.669,118.455-68.583
	c8.581,4.099,18.209,6.401,28.382,6.401c9.678,0,18.855-2.097,27.114-5.828c14.23,19.035,37.121,31.391,62.944,31.391
	c36.576,0,67.274-24.775,75.795-58.232c3.277-0.507,6.479-1.235,9.595-2.16c26.704,37.36,70.793,61.768,120.67,61.768
	c38.384,0,73.339-14.457,99.583-38.146c18.66,23.641,47.786,38.85,80.517,38.85c38.639,0,72.258-21.193,89.559-52.434
	c5.932,3.25,12.136,6.073,18.559,8.453c10.336,35.412,48.627,61.704,94.292,61.704c37.545,0,70.085-17.782,86.223-43.784
	c49.24-5.873,90.27-32.908,109.413-69.709c7.262,2.213,15.103,3.42,23.282,3.42c17.017,0,32.561-5.235,44.469-13.867
	c12.798,8.137,28.573,13.178,45.731,13.793c10.753,23.836,38.338,40.799,70.684,40.799c1.907,0,3.792-0.078,5.664-0.195
	c23.177,46.211,77.914,78.686,141.756,78.686c54.253,0,101.934-23.451,129.257-58.856c18.606,30.56,56.646,51.517,100.581,51.517
	c10.55,0,20.749-1.233,30.434-3.492c24.826,16.644,56.354,26.623,90.693,26.623c9.856,0,19.48-0.824,28.781-2.388V138.105H1800.001z
	"/>
</svg>
