<?xml version="1.0" encoding="utf-8"?>
<!-- Generator: Adobe Illustrator 17.0.0, SVG Export Plug-In . SVG Version: 6.00 Build 0)  -->
<!DOCTYPE svg PUBLIC "-//W3C//DTD SVG 1.1//EN" "http://www.w3.org/Graphics/SVG/1.1/DTD/svg11.dtd">
<svg version="1.1" id="Layer_1" xmlns="http://www.w3.org/2000/svg" xmlns:xlink="http://www.w3.org/1999/xlink" x="0px" y="0px"
	 width="1000px" height="400px" viewBox="0 0 1000 400" enable-background="new 0 0 1000 400" xml:space="preserve">
<g>
	<g>
		<path fill-rule="evenodd" clip-rule="evenodd" fill="#FFFFFF" d="M866.828,39.125c-30.337,0-58.204,10.555-80.141,28.181
			c-8.564-2.396-17.592-3.681-26.921-3.681c-38.833,0-72.474,22.203-88.915,54.597c-24.156-37.506-66.295-62.347-114.241-62.347
			c-56.423,0-104.803,34.402-125.297,83.362c-1.653-0.122-3.316-0.206-5-0.206c-28.607,0-53,17.992-62.498,43.268
			c-15.153,0.657-29.084,5.999-40.39,14.614c-10.53-9.145-24.27-14.694-39.315-14.694c-7.231,0-14.162,1.28-20.581,3.623
			c-16.916-38.991-53.177-67.646-96.685-73.878c-14.265-27.555-43.03-46.402-76.218-46.402c-47.376,0-85.781,38.378-85.781,85.719
			c0,22.143,8.404,42.323,22.196,57.534c-1.862,8.57-2.853,17.464-2.853,26.591c0,68.88,55.873,124.719,124.797,124.719
			c46.852,0,87.667-25.807,109.007-63.969c7.896,3.823,16.756,5.97,26.118,5.97c8.906,0,17.351-1.955,24.951-5.436
			c13.095,17.755,34.16,29.279,57.924,29.279c33.658,0,61.908-23.109,69.75-54.314c3.016-0.473,5.962-1.153,8.83-2.015
			c24.574,34.846,65.147,57.611,111.045,57.611c35.322,0,67.489-13.484,91.64-35.579c17.171,22.049,43.974,36.235,74.094,36.235
			c35.557,0,66.494-19.767,82.415-48.905c18.386,10.208,39.546,16.03,62.069,16.03c70.701,0,128.016-57.287,128.016-127.953
			S937.529,39.125,866.828,39.125z"/>
	</g>
</g>
</svg>
