<?xml version="1.0" encoding="utf-8"?>
<!-- Generator: Adobe Illustrator 17.0.0, SVG Export Plug-In . SVG Version: 6.00 Build 0)  -->
<!DOCTYPE svg PUBLIC "-//W3C//DTD SVG 1.1//EN" "http://www.w3.org/Graphics/SVG/1.1/DTD/svg11.dtd">
<svg version="1.1" id="Layer_1" xmlns="http://www.w3.org/2000/svg" xmlns:xlink="http://www.w3.org/1999/xlink" x="0px" y="0px"
	 width="700px" height="400px" viewBox="0 0 700 400" enable-background="new 0 0 700 400" xml:space="preserve">
<g>
	<g>
		<path fill-rule="evenodd" clip-rule="evenodd" fill="#FFFFFF" d="M584.96,139.496c-14.396,0-27.916,3.722-39.669,10.236
			c-10.182-18.61-29.966-31.236-52.706-31.236c-19.267,0-36.4,9.073-47.382,23.16c-15.44-14.111-36.005-22.723-58.587-22.723
			c-29.338,0-55.274,14.534-70.985,36.782c-1.842-0.554-3.735-0.991-5.673-1.294c-5.019-19.923-23.078-34.675-44.592-34.675
			c-15.191,0-28.656,7.357-37.029,18.693c-4.859-2.225-10.26-3.475-15.955-3.475c-5.989,0-11.657,1.373-16.707,3.819
			c-13.647-24.367-39.731-40.85-69.684-40.85c-44.071,0-79.797,35.663-79.797,79.656c0,5.821,0.642,11.489,1.83,16.955
			c-8.826,9.717-14.205,22.613-14.205,36.763c0,30.238,24.554,54.75,54.844,54.75c21.218,0,39.608-12.036,48.728-29.635
			c27.827-3.975,51.014-22.273,61.833-47.18c4.104,1.497,8.535,2.315,13.158,2.315c9.617,0,18.401-3.544,25.131-9.386
			c7.233,5.507,16.148,8.919,25.844,9.336c6.077,16.132,21.666,27.613,39.946,27.613c1.078,0,2.143-0.053,3.201-0.132
			c13.098,31.277,44.032,53.257,80.111,53.257c30.661,0,57.607-15.873,73.048-39.836c10.515,20.684,32.012,34.868,56.842,34.868
			c5.962,0,11.726-0.835,17.2-2.364c14.03,11.265,31.847,18.02,51.253,18.02c45.21,0,81.859-36.586,81.859-81.719
			C666.819,176.083,630.169,139.496,584.96,139.496z"/>
	</g>
</g>
</svg>
