<?xml version="1.0" encoding="utf-8"?>
<!-- Generator: Adobe Illustrator 17.0.0, SVG Export Plug-In . SVG Version: 6.00 Build 0)  -->
<!DOCTYPE svg PUBLIC "-//W3C//DTD SVG 1.1//EN" "http://www.w3.org/Graphics/SVG/1.1/DTD/svg11.dtd">
<svg version="1.1" id="Layer_1" xmlns="http://www.w3.org/2000/svg" xmlns:xlink="http://www.w3.org/1999/xlink" x="0px" y="0px"
	 width="800px" height="400px" viewBox="0 0 800 400" enable-background="new 0 0 800 400" xml:space="preserve">
<path fill="#FFFFFF" d="M800.5,44.878c-11.034-3.094-22.67-4.753-34.695-4.753c-30.356,0-58.24,10.555-80.191,28.181
	c-8.569-2.396-17.603-3.681-26.938-3.681c-38.857,0-72.52,22.203-88.97,54.597c-24.171-37.506-66.336-62.347-114.312-62.347
	c-56.458,0-104.868,34.402-125.375,83.362c-1.654-0.122-3.318-0.206-5.003-0.206c-28.625,0-53.033,17.992-62.537,43.268
	c-15.162,0.657-29.102,5.999-40.415,14.614c-10.537-9.145-24.286-14.694-39.34-14.694c-7.235,0-14.171,1.28-20.594,3.623
	c-16.927-38.991-53.21-67.646-96.745-73.878C52.696,88.469,28.537,70.868,0,67.258V351.77c14.648,6.024,30.69,9.355,47.514,9.355
	c46.882,0,87.722-25.807,109.076-63.969c7.901,3.822,16.766,5.97,26.133,5.97c8.912,0,17.363-1.955,24.967-5.437
	c13.103,17.756,34.181,29.279,57.96,29.279c33.679,0,61.947-23.109,69.793-54.313c3.019-0.474,5.966-1.153,8.836-2.015
	c24.589,34.846,65.188,57.61,111.114,57.61c35.344,0,67.531-13.483,91.698-35.579c17.182,22.049,44.001,36.235,74.14,36.235
	c35.579,0,66.536-19.767,82.466-48.905c18.397,10.208,39.571,16.03,62.107,16.03c12.024,0,23.661-1.659,34.695-4.753v-246.4H800.5z"
	/>
</svg>
