<?xml version="1.0" encoding="utf-8"?>
<!-- Generator: Adobe Illustrator 17.0.0, SVG Export Plug-In . SVG Version: 6.00 Build 0)  -->
<!DOCTYPE svg PUBLIC "-//W3C//DTD SVG 1.1//EN" "http://www.w3.org/Graphics/SVG/1.1/DTD/svg11.dtd">
<svg version="1.1" id="Layer_1" xmlns="http://www.w3.org/2000/svg" xmlns:xlink="http://www.w3.org/1999/xlink" x="0px" y="0px"
	 width="24px" height="24px" viewBox="0 0 24 24" enable-background="new 0 0 24 24" xml:space="preserve">
<g>
	<g>
		<polygon fill="#EB1A78" points="0.082,18.159 12.512,18.159 12.512,16.591 11.729,16.591 11.729,17.375 0.866,17.375 0.866,6.512 
			11.729,6.512 11.729,12.889 12.512,12.889 12.512,5.729 0.082,5.729 		"/>
		<rect x="2.814" y="13.273" fill="#EB1A78" width="0.784" height="2.934"/>
		<polygon fill="#EB1A78" points="5.601,14.631 4.81,13.273 3.986,13.273 3.986,16.206 4.73,16.206 4.73,14.682 4.742,14.682 
			5.641,16.206 6.361,16.206 6.361,13.273 5.613,13.273 5.613,14.631 		"/>
		<path fill="#EB1A78" d="M6.753,13.273v2.934h0.986c0.93,0,1.37-0.234,1.37-1.469c0-1.211-0.447-1.465-1.381-1.465H6.753z
			 M8.312,14.742c0,0.74-0.21,0.788-0.503,0.788H7.536v-1.544h0.241C8.111,13.986,8.312,14.005,8.312,14.742z"/>
		<rect x="9.389" y="13.273" fill="#EB1A78" width="0.784" height="2.934"/>
		<path fill="#EB1A78" d="M16.649,13.237c-1.093,0-1.287,0.716-1.287,1.504c0,0.784,0.194,1.5,1.287,1.5
			c1.089,0,1.283-0.717,1.283-1.5C17.932,13.954,17.741,13.237,16.649,13.237z M16.649,15.549c-0.431,0-0.491-0.297-0.491-0.78
			c0-0.479,0.059-0.776,0.491-0.776c0.428,0,0.487,0.297,0.487,0.776C17.136,15.252,17.077,15.549,16.649,15.549z"/>
		<path fill="#EB1A78" d="M22.144,13.237c-1.093,0-1.287,0.716-1.287,1.504c0,0.784,0.194,1.5,1.287,1.5
			c1.089,0,1.282-0.717,1.282-1.5C23.426,13.954,23.236,13.237,22.144,13.237z M22.144,15.549c-0.432,0-0.491-0.297-0.491-0.78
			c0-0.479,0.06-0.776,0.491-0.776c0.427,0,0.487,0.297,0.487,0.776C22.63,15.252,22.571,15.549,22.144,15.549z"/>
		<path fill="#EB1A78" d="M23.679,15.742c-0.143,0-0.178,0.097-0.178,0.223c0,0.126,0.035,0.222,0.178,0.222
			c0.142,0,0.179-0.096,0.179-0.222C23.858,15.839,23.821,15.742,23.679,15.742z M23.679,16.156c-0.117,0-0.144-0.083-0.144-0.19
			c0-0.108,0.027-0.191,0.144-0.191c0.117,0,0.145,0.083,0.145,0.191C23.823,16.073,23.796,16.156,23.679,16.156z"/>
		<path fill="#EB1A78" d="M23.777,15.915c0-0.053-0.018-0.084-0.086-0.084H23.59v0.265h0.054v-0.094h0.035l0.041,0.094h0.056
			l-0.045-0.099C23.767,15.986,23.777,15.957,23.777,15.915z M23.689,15.959h-0.045v-0.08h0.045c0.026,0,0.035,0.011,0.035,0.04
			C23.724,15.948,23.715,15.959,23.689,15.959z"/>
		<path fill="#EB1A78" d="M13.859,15.074h0.506v0.051c0,0.324,0.01,0.467-0.376,0.467c-0.36,0-0.483-0.166-0.483-0.827
			c0-0.689,0.206-0.772,0.515-0.772c0.229,0,0.392,0.059,0.527,0.135l0.42-0.653c-0.222-0.143-0.546-0.237-0.911-0.237
			c-1.013,0-1.338,0.487-1.338,1.504c0,0.887,0.237,1.5,1.199,1.5c0.17,0,0.317-0.012,0.443-0.036h0.721v-1.227v-0.542h-1.136
			L13.859,15.074z"/>
		<path fill="#EB1A78" d="M19.354,15.074h0.506v0.051c0,0.324,0.01,0.467-0.376,0.467c-0.36,0-0.483-0.166-0.483-0.827
			c0-0.689,0.206-0.772,0.515-0.772c0.229,0,0.392,0.059,0.527,0.135l0.42-0.653c-0.222-0.143-0.546-0.237-0.911-0.237
			c-1.013,0-1.338,0.487-1.338,1.504c0,0.887,0.237,1.5,1.199,1.5c0.17,0,0.317-0.012,0.443-0.036h0.721v-1.227v-0.542H19.44
			L19.354,15.074z"/>
		<polygon fill="#EB1A78" points="12.512,13.989 12.512,13.273 10.564,13.273 10.564,16.206 12.512,16.206 12.512,15.51 
			11.332,15.51 11.332,15.07 12.107,15.07 12.201,14.374 11.332,14.374 11.332,13.989 		"/>
	</g>
</g>
</svg>
